<svg viewBox="250 613.03 1500 773.93" data-name="Layer 1" id="Layer_1" xmlns:xlink="http://www.w3.org/1999/xlink" xmlns="http://www.w3.org/2000/svg">
  <defs>
    <style>
      .cls-1 {
        fill: url(#linear-gradient);
      }

      .cls-1, .cls-2, .cls-3 {
        stroke-width: 0px;
      }

      .cls-2 {
        fill: url(#linear-gradient-2);
      }

      .cls-3 {
        fill: url(#linear-gradient-3);
      }
    </style>
    <linearGradient gradientUnits="userSpaceOnUse" y2="1100.85" x2="1186.45" y1="638.47" x1="724.07" id="linear-gradient">
      <stop stop-color="#f5c230" offset="0"></stop>
      <stop stop-color="#ecc440" offset="0"></stop>
      <stop stop-color="#fffa8a" offset=".32"></stop>
      <stop stop-color="#ddac17" offset=".68"></stop>
      <stop stop-color="#ffff95" offset="1"></stop>
    </linearGradient>
    <linearGradient gradientUnits="userSpaceOnUse" y2="1116.69" x2="1201.77" y1="649.87" x1="734.94" id="linear-gradient-2">
      <stop stop-color="#c1c1c1" offset="0"></stop>
      <stop stop-color="#c1c1c1" offset="0"></stop>
      <stop stop-color="#efefef" offset=".32"></stop>
      <stop stop-color="#aaa" offset=".68"></stop>
      <stop stop-color="#f3f3f3" offset="1"></stop>
    </linearGradient>
    <linearGradient xlink:href="#linear-gradient-2" y2="1405.41" x2="1682.84" y1="1229.42" x1="286.07" id="linear-gradient-3"></linearGradient>
  </defs>
  <g>
    <path d="M721.78,754.92l141.2-141.69v160.05l-141.2,142.51v-160.88ZM761.97,1128.41h101.01v-40.64l-59.72.06-41.3,40.58ZM721.78,1128.42l327.89-328.69v136.49h-96.28l-126.3,125.51h222.58v66.67h141.2v-515.37h-122.37l-346.72,347.78v167.6Z" class="cls-1"></path>
    <path d="M1022.31,1128.41h-131.82v-40.64h131.82v40.64ZM1021.23,613.16h-130.73v48.98h83.11l47.62-48.98Z" class="cls-2"></path>
  </g>
  <path d="M1020.38,1316.37c-16.38-5.99-30.31-14.27-30.31-28.91,0-12.86,9.86-23.8,28.38-23.8,10.39,0,21.68,4.42,29.08,8.3l2.64-6.71c-8.45-4.4-21.86-8.12-32.25-8.12-26.09,0-35.97,16.58-35.97,30.16,0,17.98,12.52,26.97,34.56,35.95,21.15,8.65,31.37,14.99,31.37,31.02,0,12.88-12.33,24.87-31.21,24.87-14.62,0-25.38-5.64-32.25-10.92l-4.23,5.99c7.75,6.16,18.86,11.27,36.85,11.45,20.27.18,38.08-11.1,38.61-31.9.53-17.99-12.35-28.91-35.27-37.38ZM1193.5,1259.6l-39.67,58.53-39.12-58.53h-9.53l44.07,65.93v57.83h8.12v-57.83l44.77-65.93h-8.63ZM1266.49,1376.84v-117.24h-7.93v123.76h69.45v-6.52h-61.51ZM1465.69,1259.6v81.1c0,20.27-15.34,38.61-36.67,38.61s-36.48-18.34-36.48-38.61v-81.1h-8.12v81.45c0,21.68,15.34,44.78,44.42,44.78s44.97-23.11,44.97-44.78v-81.45h-8.12ZM1656.97,1257.85l-55.72,81.27-55.52-81.27-3.17.88v124.64h7.93v-104.01l49.71,72.45h2.11l49.71-72.98v104.54h7.93v-124.64l-2.99-.88ZM875.31,1258.72h-2.47l-56.05,125.52h8.1l14.79-32.82,7.4-16.67.18-.42,26.64-60.8,26.33,60.8,7.16,16.24.37.84,14.79,32.84h8.28l-55.52-125.52ZM250,1259.6v123.76h23.8v-123.76h-23.8ZM402.68,1334c11.64-5.81,21.86-18.69,21.86-34.91,0-30.49-26.97-48.49-85.5-38.43v122.7h23.8v-42.49c5.99.53,11.27.37,16.56-.16l26.09,42.66h28.92l-31.74-49.36ZM362.84,1320.26v-39.85c25.2-3.87,37.2,5.11,37.2,18.34,0,14.46-11.29,24.15-37.2,21.51ZM592.3,1280.38l-15.26,15.26c11.03,15.1,10.81,37.45-5.95,54.2-16.75,16.75-38.91,16.78-53.97,5.71l-15.5,15.5c26.82,22.75,63.83,20.58,87.54-3.14,23.71-23.71,25.89-60.72,3.14-87.54ZM568.6,1287.15l15.24-15.24c-26.93-22.99-63.79-20.62-87.54,3.13-23.75,23.75-26.12,60.61-3.14,87.54l15.47-15.47c-11.23-15.12-11.08-37.17,5.74-53.99,16.82-16.82,39.06-17.17,54.23-5.97ZM744.86,1259.6v73.52l-74.4-75.28-5.48,1.59v123.93h23.46v-73.52l74.56,75.28,5.48-1.59v-123.93h-23.62ZM1717.7,1255.39v4.62h-7.42v22.46h-6.12v-22.46h-7.42v-4.62h20.96ZM1730.07,1255.39l5.16,20.03,5.17-20.03h9.6v27.07h-6.12v-19.86l-5.23,19.86h-6.84l-5.4-20.44v20.44h-6.1v-27.07h9.75Z" class="cls-3"></path>
</svg>